<svg xmlns="http://www.w3.org/2000/svg" viewBox="0 0 100 100"><path d="M81.8 46l-3-3 14.9-14.8c1.8-1.8 1.8-4.7 0-6.5L78.2 6.2c-1.8-1.8-4.7-1.8-6.5 0l-14.8 14.9 -3-3c-1-1-2.7-1-3.7 0L5.9 62.5c-1 1-1 2.7 0 3.7l8 8 -2.4 2.4c-1.3 1.3-1.3 3.3 0 4.6l7.3 7.3c1.3 1.3 3.3 1.3 4.6 0l2.4-2.4 8 8c1 1 2.7 1 3.7 0l44.4-44.4C82.8 48.6 82.8 47 81.8 46zM21.1 85.1l-6.3-6.3 1.9-1.9 6.3 6.3L21.1 85.1zM75.9 40.1L59.7 23.9l14.9-14.8c0.2-0.2 0.6-0.2 0.8 0l15.4 15.4c0.2 0.2 0.2 0.6 0 0.8L75.9 40.1z"/><path d="M78 18.5l-2.6-2.6c-0.3-0.3-0.9-0.3-1.2 0l-2.6 2.6c-0.3 0.3-0.3 0.9 0 1.2l2.6 2.6c0.3 0.3 0.9 0.3 1.2 0l2.6-2.6C78.4 19.4 78.4 18.8 78 18.5z"/><path d="M84.1 24.5l-2.6-2.6c-0.3-0.3-0.9-0.3-1.2 0l-2.6 2.6c-0.3 0.3-0.3 0.9 0 1.2l2.6 2.6c0.3 0.3 0.9 0.3 1.2 0l2.6-2.6C84.4 25.4 84.4 24.9 84.1 24.5z"/></svg>
