<svg xmlns="http://www.w3.org/2000/svg" viewBox="0 0 100 100"><path d="M87.9 23.6l-34.6-20c-2.2-1.3-5-1.3-7.2 0l-34.6 20c-2.2 1.3-3.6 3.7-3.6 6.2v40c0 2.6 1.4 5 3.6 6.2l34.6 20c1.1 0.6 2.3 1 3.6 1 1.3 0 2.5-0.3 3.6-1l34.6-20c2.2-1.3 3.6-3.7 3.6-6.2v-40C91.5 27.3 90.1 24.9 87.9 23.6zM36.7 36.4c3.6 0 6.5 2.9 6.5 6.5 0 3.6-2.9 6.5-6.5 6.5 -3.6 0-6.5-2.9-6.5-6.5C30.2 39.3 33.1 36.4 36.7 36.4zM48.3 62.6H25v-5.3c0-3.1 2.5-5.6 5.6-5.6h12c3.1 0 5.6 2.5 5.6 5.6V62.6zM63.3 61.1h-8V57h8V61.1zM71.2 53.8h-16v-4.1h16V53.8zM74.3 46.2H55.3v-4.1h19.1V46.2z"/></svg>
