<svg xmlns="http://www.w3.org/2000/svg" viewBox="0 0 100 100"><path d="M87.5 23.4l-34.6-20c-2.2-1.3-5-1.3-7.2 0L11 23.4c-2.2 1.3-3.6 3.7-3.6 6.2v40c0 2.6 1.4 5 3.6 6.2l34.6 20c1.1 0.6 2.3 1 3.6 1 1.3 0 2.5-0.3 3.6-1l34.6-20c2.2-1.3 3.6-3.7 3.6-6.2v-40C91.1 27.1 89.8 24.7 87.5 23.4zM66.8 51.5c-1.4 6.6-5.4 15.4-16.5 20.3l-1 0.5 -1.1-0.5C37.1 67 33.1 58.1 31.7 51.5c-1.4-6.7-0.4-12.4-0.3-13.1l0.4-2.2 2.4 0.1c1.5 0 9.3-0.3 12.8-6l2.2-3.4 2.2 3.4c3.5 5.7 11.3 6 12.8 6l2.4-0.1 0.4 2.2C67.3 39.1 68.3 44.7 66.8 51.5z"/><polygon points="47.9 51.7 44.7 48.5 41.3 51.9 47.5 58.2 47.9 58.5 58.1 48.4 58.4 48 55 44.6 "/></svg>
