<svg xmlns="http://www.w3.org/2000/svg" viewBox="0 0 288 342"><path d="M144 11.6c-44.5 0-56.8 39.7-57.5 60.5v91c0 4.4 3.4 7.9 7.5 7.9h99.9c4.1 0 7.5-3.4 7.5-7.9v-91C200.8 51.3 188.5 11.6 144 11.6zM186.4 150.8c0 2.1-1.7 3.8-3.4 3.8h-78.3c-1.7 0-3.4-1.7-3.4-3.8V72.2c0-2.1 1.7-3.8 3.4-3.8H183c1.7 0 3.4 1.7 3.4 3.8V150.8z"/><path d="M193.9 178.9H94.1c-4.1 0-7.5 3.4-7.5 7.5v86.5c0.3 19.8 13 57.5 57.1 57.5s56.8-37.6 57.1-57.5v-86.5C201.1 182.3 198 178.9 193.9 178.9zM123.8 267.8c0 4.1-3.4 7.5-7.5 7.5h-3.1c-4.1 0-7.5-3.4-7.5-7.5V265c0-4.1 3.4-7.5 7.5-7.5h3.1c4.1 0 7.5 3.4 7.5 7.5V267.8zM123.8 238c0 4.1-3.4 7.5-7.5 7.5h-3.1c-4.1 0-7.5-3.4-7.5-7.5v-2.7c0-4.1 3.4-7.5 7.5-7.5h3.1c4.1 0 7.5 3.4 7.5 7.5V238zM123.8 208.3c0 4.1-3.4 7.5-7.5 7.5h-3.1c-4.1 0-7.5-3.4-7.5-7.5v-2.7c0-4.1 3.4-7.5 7.5-7.5h3.1c4.1 0 7.5 3.4 7.5 7.5V208.3zM152.9 267.8c0 4.1-3.4 7.5-7.5 7.5h-2.7c-4.1 0-7.5-3.4-7.5-7.5V265c0-4.1 3.4-7.5 7.5-7.5h3.1c4.1 0 7.5 3.4 7.5 7.5v2.7H152.9zM152.9 238c0 4.1-3.4 7.5-7.5 7.5h-2.7c-4.1 0-7.5-3.4-7.5-7.5v-2.7c0-4.1 3.4-7.5 7.5-7.5h3.1c4.1 0 7.5 3.4 7.5 7.5v2.7H152.9zM152.9 208.3c0 4.1-3.4 7.5-7.5 7.5h-2.7c-4.1 0-7.5-3.4-7.5-7.5v-2.7c0-4.1 3.4-7.5 7.5-7.5h3.1c4.1 0 7.5 3.4 7.5 7.5v2.7H152.9zM181.6 267.8c0 4.1-3.4 7.5-7.5 7.5H171c-4.1 0-7.5-3.4-7.5-7.5V265c0-4.1 3.4-7.5 7.5-7.5h3.1c4.1 0 7.5 3.4 7.5 7.5V267.8zM181.6 238c0 4.1-3.4 7.5-7.5 7.5H171c-4.1 0-7.5-3.4-7.5-7.5v-2.7c0-4.1 3.4-7.5 7.5-7.5h3.1c4.1 0 7.5 3.4 7.5 7.5V238zM181.6 208.3c0 4.1-3.4 7.5-7.5 7.5H171c-4.1 0-7.5-3.4-7.5-7.5v-2.7c0-4.1 3.4-7.5 7.5-7.5h3.1c4.1 0 7.5 3.4 7.5 7.5V208.3z"/></svg>