<svg xmlns="http://www.w3.org/2000/svg" viewBox="0 0 100 100"><path d="M61.9 67.4H6.9C5 67.4 5 65.6 5 65.6v-1.2h26.8v0.6c0 0.3 0.3 0.6 0.6 0.6h7.5c0.3 0 0.6-0.3 0.6-0.6v-0.6h20.6v1.4C61.1 66.4 61.4 67 61.9 67.4zM12.5 60.6V35.1v-0.6c0-1 0.8-1.9 1.9-1.9h43.6c1 0 1.9 0.8 1.9 1.9v0.6 25.5c0 1-0.8 1.9-1.9 1.9h-0.6 -42.3 -0.6C13.3 62.5 12.5 61.6 12.5 60.6zM15 60h42.3V35.1h-42.3V60zM81.1 67.4H65.9c-1.4 0-2.5-1.1-2.5-2.5V37.6c0-1.4 1.1-2.5 2.5-2.5h16.9c1.4 0 2.5 1.1 2.5 2.5v5.3h-2.2v-3.5H65.5v23.7h14.8v2.7C80.4 66.4 80.7 67 81.1 67.4zM75.3 65.2c0-0.5-0.4-1-1-1 -0.5 0-1 0.4-1 1 0 0.5 0.4 1 1 1C74.9 66.2 75.3 65.8 75.3 65.2zM95 46.4v19.2c0 1-0.8 1.8-1.8 1.8h-8.9c-1 0-1.8-0.8-1.8-1.8V46.4c0-1 0.8-1.8 1.8-1.8h8.9C94.2 44.6 95 45.4 95 46.4zM86.6 46.6h4.2v-0.5h-4.2V46.6zM89.4 65.8c0-0.4-0.3-0.7-0.7-0.7 -0.4 0-0.7 0.3-0.7 0.7 0 0.4 0.3 0.7 0.7 0.7C89.1 66.5 89.4 66.2 89.4 65.8zM93.9 47.7H83.6v16.6h10.3V47.7z"/></svg>
