<svg xmlns="http://www.w3.org/2000/svg" viewBox="0 0 100 100"><style>.a{fill:none;}</style><circle cx="6.2" cy="63.6" r="0.3" class="a"/><circle cx="6.2" cy="63.6" r="0.3" class="a"/><polygon points="15.1 59.1 7 59.1 7 68 15.1 68 18.8 68 18.8 66.7 18.8 59.1 16.6 59.1 " class="a"/><circle cx="22.6" cy="49.8" r="0.1" class="a"/><circle cx="45.1" cy="58.5" r="0.8" class="a"/><polygon points="57.8 50.5 57.8 55.1 57.8 60.4 57.8 65.4 85.4 65.4 85.4 50.5 65.3 50.5 63.6 50.5 " class="a"/><path d="M57.3 49.2h6.3V34.3H26.7v14.6h2.8c0.4 0 0.7 0.3 0.7 0.7v5.5h26.4v-5.3C56.6 49.5 56.9 49.2 57.3 49.2z" class="a"/><circle cx="71.6" cy="49.8" r="0.3" class="a"/><path d="M20.2 59.4V66.7h8.4v-6.3 -5.3 -4.5h-2 -1.7H16.6v8h2.9C19.9 58.7 20.2 59 20.2 59.4z" class="a"/><path d="M22.6 67.2c-0.1 0-0.2 0-0.3 0.1 -0.2 0.2-0.2 0.4-0.1 0.6 0.1 0.1 0.2 0.2 0.4 0.2 0.1 0 0.2 0 0.3-0.1 0.2-0.2 0.2-0.4 0.1-0.6C22.9 67.2 22.8 67.2 22.6 67.2z" class="a"/><path d="M93 60h0.6c0 0 0.1 0 0.1-0.1s0-0.1-0.1-0.1h-0.6c0 0-0.1 0-0.1 0.1S93 60 93 60z" class="a"/><path d="M93.6 67.5c-0.1 0-0.1-0.1-0.2-0.1 -0.1 0-0.2 0.1-0.3 0.1 0 0.1-0.1 0.2 0 0.2 0 0.1 0.1 0.2 0.1 0.2 0.1 0 0.1 0.1 0.2 0.1 0.1 0 0.2-0.1 0.3-0.1 0-0.1 0.1-0.2 0-0.2C93.7 67.6 93.6 67.6 93.6 67.5z" class="a"/><circle cx="92.7" cy="59.9" r="0.1" class="a"/><rect x="91.5" y="60.4" width="3.8" height="6.8" class="a"/><circle cx="93.4" cy="59.5" r="0.1" class="a"/><path d="M86.6 66.3V49.9c0-0.4-0.3-0.7-0.7-0.7H65.3v1.4h20.1v14.9h-27.6v-5h-1.2v5.9c0 0.1 0 0.2 0.1 0.3h-3.4v1.1c0 0.4 0.3 0.7 0.7 0.7h35.3c0.4 0 0.7-0.3 0.7-0.7v-1.1h-3.4C86.5 66.5 86.6 66.4 86.6 66.3zM71.6 50.1c-0.2 0-0.3-0.1-0.3-0.3 0-0.2 0.1-0.3 0.3-0.3 0.2 0 0.3 0.1 0.3 0.3C71.8 50 71.7 50.1 71.6 50.1zM73.3 67.8h-3.5c-0.2 0-0.3-0.1-0.3-0.3 0-0.2 0.1-0.3 0.3-0.3h3.5c0.2 0 0.3 0.1 0.3 0.3C73.6 67.7 73.5 67.8 73.3 67.8z"/><path d="M95 59.1h-0.1c0 0 0 0 0 0v0c0 0 0 0 0 0h-0.7c0 0 0 0 0 0v0c0 0 0 0 0 0h-2.3c-0.4 0-0.6 0.3-0.6 0.6v0.6H91.2c0 0 0 0 0 0v0.4c0 0 0 0 0 0h0v0.5c0 0 0 0 0 0h0c0 0 0 0 0 0v0.3c0 0 0 0 0 0h0c0 0 0 0 0 0v0.5c0 0 0 0 0 0h0c0 0 0 0 0 0v0.3c0 0 0 0 0 0h0c0 0 0 0 0 0v5.5c0 0.4 0.3 0.6 0.6 0.6h3.1c0.4 0 0.6-0.3 0.6-0.6v-8.1C95.6 59.4 95.3 59.1 95 59.1zM93.3 59.4c0 0 0.1 0 0.1 0 0 0 0 0.1 0 0.1 0 0-0.1 0-0.1 0C93.3 59.5 93.3 59.5 93.3 59.4zM93 59.8h0.6c0 0 0.1 0 0.1 0.1s0 0.1-0.1 0.1h-0.6c0 0-0.1 0-0.1-0.1S93 59.8 93 59.8zM92.7 59.8c0 0 0.1 0 0.1 0.1 0 0 0 0.1-0.1 0.1s-0.1 0-0.1-0.1C92.7 59.8 92.7 59.8 92.7 59.8zM93.7 68c-0.1 0.1-0.2 0.1-0.3 0.1 -0.1 0-0.1 0-0.2-0.1 -0.1 0-0.1-0.1-0.1-0.2 0-0.1 0-0.2 0-0.2 0.1-0.1 0.2-0.1 0.3-0.1 0.1 0 0.1 0 0.2 0.1 0.1 0 0.1 0.1 0.1 0.2C93.7 67.8 93.7 67.9 93.7 68zM95.3 67.2h-3.8v-6.8h3.8V67.2z"/><path d="M63.6 50.5v-1.4h-6.3c-0.4 0-0.7 0.3-0.7 0.7v5.3h1.2v-4.6H63.6z"/><path d="M26.7 34.3h36.9v14.8 1.4h1.7v-1.4V33.9c0-0.7-0.5-1.2-1.2-1.2H45.5h-0.6H26.2c-0.7 0-1.2 0.5-1.2 1.2v15h1.7V34.3z"/><path d="M57.8 55.1h-1.2 -26.4v5.3h11c0 0.4-0.1 2-0.9 2.8 -0.6 0.6-1.5 1.2-1.1 1.5 0.1 0.2 0.5 0.3 1.3 0.3 1.9 0 4 0 4.8 0 0.2 0 0.3 0 0.3 0 0.8 0 2.8 0 4.8 0 1 0 1.3-0.2 1.3-0.4h0v-0.1h0c0-0.3-0.7-0.8-1.2-1.3 -0.8-0.8-0.9-2.4-0.9-2.8h7.2 1.2V55.1zM45.1 59.2c-0.4 0-0.8-0.4-0.8-0.8s0.4-0.8 0.8-0.8c0.4 0 0.8 0.4 0.8 0.8C45.9 58.9 45.6 59.2 45.1 59.2z"/><path d="M30.1 49.6c0-0.4-0.3-0.7-0.7-0.7h-2.8 -1.7 -9.2c-0.4 0-0.7 0.3-0.7 0.7v9.1h1.5v-8h8.4 1.7 2v4.5 5.3V66.7h-8.4v1c0 0.4-0.3 0.7-0.7 0.7h10c0.4 0 0.7-0.3 0.7-0.7v-7.4 -5.3V49.6zM22.7 49.9c0 0.1-0.1 0.1-0.2 0 -0.1 0-0.1-0.1 0-0.2 0-0.1 0.1-0.1 0.2 0C22.8 49.7 22.8 49.8 22.7 49.9zM22.9 68c-0.1 0.1-0.2 0.1-0.3 0.1 -0.1 0-0.3-0.1-0.4-0.2 -0.2-0.2-0.1-0.5 0.1-0.6 0.1-0.1 0.2-0.1 0.3-0.1 0.1 0 0.3 0.1 0.4 0.2C23.1 67.5 23.1 67.8 22.9 68z"/><path d="M20.2 67.7V66.7v-7.3c0-0.4-0.3-0.7-0.7-0.7H16.6h-1.5H6.3c-0.4 0-0.7 0.3-0.7 0.7v8.4c0 0.4 0.3 0.7 0.7 0.7h9.5 3.8C19.9 68.4 20.2 68.1 20.2 67.7zM6.5 63.8c-0.1 0.1-0.4 0.1-0.5-0.1s-0.1-0.4 0.1-0.5c0.1-0.1 0.4-0.1 0.5 0.1C6.6 63.5 6.6 63.7 6.5 63.8zM18.8 66.7v1.3h-3.7 -8.1v-8.9h8.1 1.5 2.2V66.7zM19.6 63.6c0 0-0.1 0.1-0.1 0 0 0-0.1-0.1 0-0.1s0.1-0.1 0.1 0C19.6 63.5 19.6 63.6 19.6 63.6z"/></svg>
