<svg xmlns="http://www.w3.org/2000/svg" viewBox="0 0 100 100"><path d="M53 55.2C53 55.2 53 55.1 53 55L53 36.3 55.9 39.1C57.1 40.4 58.9 40.3 60.1 39.1 61.3 38 61.4 36.2 60.1 34.9L51.9 26.8C50.8 25.7 49.1 25.7 48 26.8L39.9 34.9C38.6 36.2 38.7 38 39.9 39.1 41.1 40.3 42.9 40.4 44.1 39.1L47 36.3 47 44.8C47 44.8 47 44.9 47 45L47 63.7 44.1 60.9C42.9 59.6 41.1 59.7 39.9 60.9 38.7 62 38.6 63.8 39.9 65.1L48.1 73.2C49.2 74.3 50.9 74.3 52 73.2L60.1 65.1C61.4 63.8 61.3 62 60.1 60.9 58.9 59.7 57.1 59.6 55.9 60.9L53 63.7 53 55.2 53 55.2Z"/></svg>
