<svg xmlns="http://www.w3.org/2000/svg" viewBox="0 0 100 100"><path d="M26.2 72h7.7c1.8 0 3.2-1.4 3.2-3.2V16.7c0-1.8-1.4-3.2-3.2-3.2h-7.7c-1.8 0-3.2 1.4-3.2 3.2v52.1C22.9 70.5 24.4 72 26.2 72z"/><path d="M90.5 26.8H39.7v41.9c0 3.2-2.6 5.8-5.8 5.8h-4v0.3h0v3.6c0 0.8 0 3.2-5.6 4.2 -3.1 0.5-10.3 0.1-13.7-3.5 -1.8-1.8-2.3-4.3-1.6-7.4 0.3-0.9 2.2-3.7 4.2-5.1v6.8c0 2.5 2 4.5 4.5 4.5h8.5v-3.4h-0.1c-3.2 0-5.8-2.6-5.8-5.8V26.8h-2.6c-2.5 0-4.5 2-4.5 4.5v31.3c-4 1.5-7.4 6.6-7.8 8.4 -1.2 5.4 0.7 8.8 2.5 10.7 3.6 3.8 9.6 4.8 13.9 4.8 1.3 0 2.3-0.1 3.2-0.2 7.5-1.3 8.6-5.5 8.6-7.8v-0.4h57c2.5 0 4.5-2 4.5-4.5V31.3C95 28.8 93 26.8 90.5 26.8zM55.9 71.2c0 0.8-0.6 1.4-1.4 1.4h-5c-0.8 0-1.4-0.6-1.4-1.4V67c0-0.8 0.6-1.4 1.4-1.4h5c0.8 0 1.4 0.6 1.4 1.4V71.2zM55.9 62.4c0 0.8-0.6 1.4-1.4 1.4h-5c-0.8 0-1.4-0.6-1.4-1.4v-4.2c0-0.8 0.6-1.4 1.4-1.4h5c0.8 0 1.4 0.6 1.4 1.4V62.4zM55.9 53.4c0 0.8-0.6 1.4-1.4 1.4h-5c-0.8 0-1.4-0.6-1.4-1.4v-4.2c0-0.8 0.6-1.4 1.4-1.4h5c0.8 0 1.4 0.6 1.4 1.4V53.4zM66.6 71.2c0 0.8-0.6 1.4-1.4 1.4h-5c-0.8 0-1.4-0.6-1.4-1.4V67c0-0.8 0.6-1.4 1.4-1.4h5c0.8 0 1.4 0.6 1.4 1.4V71.2zM66.6 62.4c0 0.8-0.6 1.4-1.4 1.4h-5c-0.8 0-1.4-0.6-1.4-1.4v-4.2c0-0.8 0.6-1.4 1.4-1.4h5c0.8 0 1.4 0.6 1.4 1.4V62.4zM66.6 53.4c0 0.8-0.6 1.4-1.4 1.4h-5c-0.8 0-1.4-0.6-1.4-1.4v-4.2c0-0.8 0.6-1.4 1.4-1.4h5c0.8 0 1.4 0.6 1.4 1.4V53.4zM77.3 71.2c0 0.8-0.6 1.4-1.4 1.4h-5c-0.8 0-1.4-0.6-1.4-1.4V67c0-0.8 0.6-1.4 1.4-1.4h5c0.8 0 1.4 0.6 1.4 1.4V71.2zM77.3 62.4c0 0.8-0.6 1.4-1.4 1.4h-5c-0.8 0-1.4-0.6-1.4-1.4v-4.2c0-0.8 0.6-1.4 1.4-1.4h5c0.8 0 1.4 0.6 1.4 1.4V62.4zM77.3 53.4c0 0.8-0.6 1.4-1.4 1.4h-5c-0.8 0-1.4-0.6-1.4-1.4v-4.2c0-0.8 0.6-1.4 1.4-1.4h5c0.8 0 1.4 0.6 1.4 1.4V53.4zM79.4 41c0 1.4-1.1 2.5-2.5 2.5H48.2c-1.4 0-2.5-1.1-2.5-2.5v-6.4c0-1.4 1.1-2.5 2.5-2.5H77c1.4 0 2.5 1.1 2.5 2.5V41zM90.1 71.8c0 0.5-0.4 0.8-0.8 0.8h-4.9c-0.5 0-0.8-0.4-0.8-0.8V71c0-0.5 0.4-0.8 0.8-0.8h4.9c0.5 0 0.8 0.4 0.8 0.8V71.8zM90.1 65.6c0 0.5-0.4 0.8-0.8 0.8h-4.9c-0.5 0-0.8-0.4-0.8-0.8v-0.8c0-0.5 0.4-0.8 0.8-0.8h4.9c0.5 0 0.8 0.4 0.8 0.8V65.6zM90.1 59.4c0 0.5-0.4 0.8-0.8 0.8h-4.9c-0.5 0-0.8-0.4-0.8-0.8v-0.8c0-0.5 0.4-0.8 0.8-0.8h4.9c0.5 0 0.8 0.4 0.8 0.8V59.4zM90.1 53.2c0 0.5-0.4 0.8-0.8 0.8h-4.9c-0.5 0-0.8-0.4-0.8-0.8v-0.8c0-0.5 0.4-0.8 0.8-0.8h4.9c0.5 0 0.8 0.4 0.8 0.8V53.2zM90.1 47c0 0.5-0.4 0.8-0.8 0.8h-4.9c-0.5 0-0.8-0.4-0.8-0.8v-0.8c0-0.5 0.4-0.8 0.8-0.8h4.9c0.5 0 0.8 0.4 0.8 0.8V47zM90.1 40.8c0 0.5-0.4 0.8-0.8 0.8h-4.9c-0.5 0-0.8-0.4-0.8-0.8v-0.8c0-0.5 0.4-0.8 0.8-0.8h4.9c0.5 0 0.8 0.4 0.8 0.8V40.8zM90.1 34.7c0 0.5-0.4 0.8-0.8 0.8h-4.9c-0.5 0-0.8-0.4-0.8-0.8v-0.8c0-0.5 0.4-0.8 0.8-0.8h4.9c0.5 0 0.8 0.4 0.8 0.8V34.7z"/></svg>