<svg xmlns="http://www.w3.org/2000/svg" viewBox="0 0 100 100"><path d="M87.9 23.7l-34.6-20c-2.2-1.3-5-1.3-7.2 0l-34.6 20C9.2 25 7.8 27.4 7.8 30v40c0 2.6 1.4 5 3.6 6.2l34.6 20c1.1 0.6 2.3 1 3.6 1s2.5-0.3 3.6-1l34.6-20c2.2-1.3 3.6-3.7 3.6-6.2V30C91.5 27.4 90.2 25 87.9 23.7zM47.8 38c0-0.3 0.3-0.6 0.6-0.6h2c0.3-1.2 0.8-2.3 1.4-3.4l-1.7-1.7c-0.1-0.1-0.2-0.3-0.2-0.4s0.1-0.3 0.2-0.4l2.2-2.2c0.2-0.2 0.6-0.2 0.9 0L55 31c0.9-0.6 2-1 3.1-1.2v-2.1c0-0.3 0.3-0.6 0.6-0.6h3.1c0.3 0 0.6 0.3 0.6 0.6v2.1c1.1 0.3 2.1 0.7 3 1.2l1.7-1.7c0.2-0.2 0.6-0.2 0.9 0l2.2 2.2c0.1 0.1 0.2 0.3 0.2 0.4s-0.1 0.3-0.2 0.4L68.6 34c0.6 1 1.1 2.1 1.4 3.3h2c0.3 0 0.6 0.3 0.6 0.6v3.1c0 0.3-0.3 0.6-0.6 0.6h-2c-0.2 1.1-0.7 2.1-1.2 3.1l1.4 1.4c0.1 0.1 0.2 0.3 0.2 0.4 0 0.2-0.1 0.3-0.2 0.4l-2.2 2.2c-0.1 0.1-0.3 0.2-0.4 0.2 -0.2 0-0.3-0.1-0.4-0.2l-1.3-1.3c-1 0.7-2.1 1.1-3.3 1.4v1.8c0 0.3-0.3 0.6-0.6 0.6h-3.1c-0.3 0-0.6-0.3-0.6-0.6v-1.8c-1.2-0.3-2.4-0.8-3.4-1.4l-1.5 1.5c-0.1 0.1-0.3 0.2-0.4 0.2s-0.3-0.1-0.4-0.2l-2.2-2.2c-0.1-0.1-0.2-0.3-0.2-0.4 0-0.2 0.1-0.3 0.2-0.4l1.6-1.6c-0.6-0.9-1-2-1.2-3h-2c-0.3 0-0.6-0.3-0.6-0.6V38zM73 64c0 0-22.5 6.4-22.6 6.4 -0.5 0.1-2.8 0.7-4.7-0.4 -1.1-0.6-9.5-5.9-10.6-6.5L24 66.6l-3.4-11.8 0.1 0c0.7-0.2 17.3-4.9 17.7-5 0 0 0 0 0 0 2.2-0.6 3.8 0.4 3.8 0.5l15.4 8.6c1 0.5 1.5 1.7 1.3 2.8 0 0.5-0.2 0.9-0.4 1.3 -0.4 0.8-1.1 1.3-2 1.6s-1.8 0.1-2.5-0.3l-6.3-3.5 -0.6 1.1 6.3 3.5c1.1 0.6 2.3 0.7 3.5 0.4 1.2-0.3 2.1-1.1 2.7-2.2 0.6-1 0.7-2.2 0.4-3.3l0-0.1L71 57c1.8-0.5 3.7 0.5 4.2 2.3C75.8 61.5 74.6 63.5 73 64z"/><circle cx="60.2" cy="39.5" r="6.2"/></svg>
