<svg xmlns="http://www.w3.org/2000/svg" xmlns:xlink="http://www.w3.org/1999/xlink" version="1.1" x="0px" y="0px" viewBox="0 0 25 25" style="enable-background:new 0 0 25 25;" xml:space="preserve"><g><path d="M5.144,11.08l-0.732-0.682L8.502,6l4.088,4.398l-0.732,0.682L9,8.006v16.488C10.111,24.818,11.283,25,12.5,25   C19.403,25,25,19.404,25,12.5c0-5.314-3.323-9.843-8-11.651v16.144l2.855-3.072l0.732,0.682L16.498,19l-4.088-4.398l0.732-0.682   L16,16.994V0.506C14.889,0.182,13.717,0,12.5,0C5.597,0,0,5.598,0,12.5c0,5.315,3.323,9.844,8,11.651V8.008L5.144,11.08z"></path></g></svg>